<svg xmlns="http://www.w3.org/2000/svg" xmlns:xlink="http://www.w3.org/1999/xlink" width="44" height="44" viewBox="0 0 44 44">
  <defs>
    <path id="logo-a" d="M22,44 C34.15026,44 44,34.150264 44,22 C44,9.84974 34.15026,0 22,0 C9.849736,0 0,9.84974 0,22 C0,34.150264 9.849736,44 22,44 Z"/>
    <path id="logo-c" d="M22,44 C34.15026,44 44,34.150264 44,22 C44,9.84974 34.15026,0 22,0 C9.849736,0 0,9.84974 0,22 C0,34.150264 9.849736,44 22,44 Z"/>
  </defs>
  <g fill="none" fill-rule="evenodd">
    <mask id="logo-b" fill="#fff">
      <use xlink:href="#logo-a"/>
    </mask>
    <polygon fill="#C0A46B" points="-5 -5 49 -5 49 49 -5 49" mask="url(#logo-b)"/>
    <g>
      <mask id="logo-d" fill="#fff">
        <use xlink:href="#logo-c"/>
      </mask>
      <polygon fill="#BFA267" points="-5 -5 49 -5 49 49 -5 49" mask="url(#logo-d)"/>
    </g>
    <g stroke="#FFF" stroke-width="1.5" transform="translate(16 10)">
      <path d="M12,8.5 L12,14.231249 C12,15.533522 11.43584,16.771935 10.45325,17.626588 L6,21.5 L1.546752,17.626588 C0.564161,16.771935 0,15.533522 0,14.231249 L0,8.5"/>
      <path d="M12,3.5 L12,8.325704 C12,9.647247 11.41909,10.901986 10.4114,11.756995 L6,15.5 L1.588601,11.756995 C0.5809126,10.901986 0,9.647247 0,8.325704 L0,3.5"/>
      <path d="M12 .5L12 2.622978C12 4.009449 11.36088 5.318514 10.26764 6.171238L6 9.5 1.732357 6.171238C.6391211 5.318514 0 4.009449 0 2.622978L0 .5M6 .5L6 24.5"/>
    </g>
  </g>
</svg>
